PathFileType	4	(X/Y/Z)	C:\Users\Basilio\Documents\Thesis Gigler\squatting_fais\c3dfiles\077\SLS_front_pre2\markers_experimental.trc
DataRate	CameraRate	NumFrames	NumMarkers	Units	OrigDataRate	OrigDataStartFrame	OrigNumFrames
200.000000	200.000000	4	60	mm	200.000000	1296	2075
Frame#	Time	FHD			LBHD			RBHD			C7			T10			CLAV			LSHO			LUUPA			LMUPA			LDUPA			LLEP			LMEP			LRAD			LUL			LRFIN			RSHO			RUPA1			RMUPA			RDUPA			RLEP			RMEP			RUL			RUFIN			LASI			RASI			USACR			LSACR			RSACR			LTHI1			LTHI2			LTHI3			LTHI4			LLFC			LMFC			LTIB1			LTIB2			LTIB3			LTIB4			LLMAL			LHEE			LMT1			LMT2			LMT5			RTHI			RTHI2			RTHI3			RTHI4			RLFC			RMFC			RTIB1			RTIB2			RTIB3			RTIB4			RLMAL			RMMAL			RHEE			RMT1			RMT2			RMT5			RRAD			
		X1	Y1	Z1	X2	Y2	Z2	X3	Y3	Z3	X4	Y4	Z4	X5	Y5	Z5	X6	Y6	Z6	X7	Y7	Z7	X8	Y8	Z8	X9	Y9	Z9	X10	Y10	Z10	X11	Y11	Z11	X12	Y12	Z12	X13	Y13	Z13	X14	Y14	Z14	X15	Y15	Z15	X16	Y16	Z16	X17	Y17	Z17	X18	Y18	Z18	X19	Y19	Z19	X20	Y20	Z20	X21	Y21	Z21	X22	Y22	Z22	X23	Y23	Z23	X24	Y24	Z24	X25	Y25	Z25	X26	Y26	Z26	X27	Y27	Z27	X28	Y28	Z28	X29	Y29	Z29	X30	Y30	Z30	X31	Y31	Z31	X32	Y32	Z32	X33	Y33	Z33	X34	Y34	Z34	X35	Y35	Z35	X36	Y36	Z36	X37	Y37	Z37	X38	Y38	Z38	X39	Y39	Z39	X40	Y40	Z40	X41	Y41	Z41	X42	Y42	Z42	X43	Y43	Z43	X44	Y44	Z44	X45	Y45	Z45	X46	Y46	Z46	X47	Y47	Z47	X48	Y48	Z48	X49	Y49	Z49	X50	Y50	Z50	X51	Y51	Z51	X52	Y52	Z52	X53	Y53	Z53	X54	Y54	Z54	X55	Y55	Z55	X56	Y56	Z56	X57	Y57	Z57	X58	Y58	Z58	X59	Y59	Z59	X60	Y60	Z60	

1297	6.48	-299.0986633300782	1680.737670898438	-1076.36279296875	-428.0215759277345	1559.02294921875	-1146.536499023438	-434.5839233398439	1554.964599609375	-1000.149291992188	-463.9106445312501	1415.554931640625	-1086.875732421875	-453.2342224121095	1079.75732421875	-1067.1201171875	-296.7502441406251	1380.753784179688	-1075.371459960938	-317.0607910156251	1419.363647460938	-1247.780883789063	-138.8973236083985	1380.63818359375	-1339.048461914063	-114.4389724731446	1413.262939453125	-1310.457397460938	-69.94886779785158	1383.24951171875	-1340.819091796875	-6.328314781188967	1395.848388671875	-1331.467895507813	0.5660536289215089	1325.358520507813	-1306.443237304688	275.9074096679688	1432.293090820313	-1189.079956054688	285.2634277343751	1442.720703125	-1267.852661132813	371.2008056640626	1465.028686523438	-1186.59814453125	-322.6759338378907	1421.723999023438	-916.443786621094	-164.6592864990235	1399.010375976563	-807.7114257812502	-140.4309234619141	1425.741943359375	-841.6925048828127	-95.06131744384767	1404.787475585938	-807.1325683593752	-29.49267005920411	1415.531494140625	-816.6783447265627	-20.06879043579102	1341.155639648438	-841.0308837890627	262.5505371093751	1467.995361328125	-854.2387695312502	342.1062011718751	1481.776611328125	-938.4890747070315	-225.938705444336	916.9547119140627	-1175.829833984375	-269.9306030273438	934.2305297851565	-901.3887939453127	-447.6694335937501	957.8889160156252	-1058.414184570313	-446.1192016601564	929.5646972656252	-1087.929321289063	-454.4675598144532	923.428161621094	-1034.132568359375	-197.6404724121094	703.2834472656251	-1230.153686523438	-135.1668090820313	646.4951782226564	-1227.546508789063	-92.31735992431642	669.9025878906251	-1223.340698242188	-138.0214385986328	586.8153686523439	-1212.688720703125	-57.70812606811525	461.6291809082032	-1178.610107421875	-42.34679412841798	456.5378723144532	-1046.508911132813	-139.1189575195313	271.7140808105469	-1069.972290039063	-194.0842895507813	239.8543701171876	-1135.171630859375	-170.7430877685547	228.6654205322266	-1097.309936523438	-221.9285430908204	178.1274566650391	-1053.7294921875	-336.4886779785157	105.1620864868164	-1085.777099609375	-405.3653259277345	82.72960662841798	-1026.8408203125	-190.8570251464844	56.69525146484376	-1055.6669921875	-203.9371337890626	40.78195190429688	-1102.735473632813	-305.8386840820313	123.4404067993164	-1002.884765625	-70.88063812255861	714.8546142578126	-826.289245605469	-4.565009117126466	724.1411743164064	-823.896423339844	10.27619075775147	754.7742309570314	-828.4854736328127	50.91940307617189	663.7645874023439	-834.1427001953127	106.0337524414063	627.7020263671876	-831.6363525390627	141.7064971923828	644.9932250976564	-956.5005493164065	242.7616577148438	574.4210815429689	-841.981628417969	255.5498962402344	473.8518981933595	-809.7244262695315	288.4712524414063	502.2630615234376	-828.1101074218752	325.6230468750001	476.6048278808595	-866.1731567382815	411.9689025878907	303.4840393066407	-822.6219482421877	428.5100097656251	331.6820068359376	-908.0175781250002	409.2407531738282	228.5628509521485	-881.1518554687502	558.0470581054689	398.6633605957032	-855.3840942382815	550.9049072265626	396.3021850585939	-817.4636840820315	551.5664062500001	368.1163330078126	-770.5750732421877	248.3119049072266	1450.171142578125	-929.2315063476565	
1298	6.485	-298.6795959472657	1679.832397460938	-1076.338623046875	-427.8775329589845	1558.518920898438	-1146.709838867188	-433.9881591796876	1553.976318359375	-1000.023315429688	-463.2001037597657	1414.683349609375	-1086.74365234375	-453.0121459960939	1078.71533203125	-1067.09375	-296.3957214355469	1379.528930664063	-1075.344848632813	-316.7203674316407	1418.3759765625	-1247.617553710938	-138.3775939941407	1379.671508789063	-1338.96142578125	-112.7300033569336	1411.879272460938	-1309.965087890625	-70.09180450439455	1382.468505859375	-1340.973999023438	-5.491095542907716	1394.845092773438	-1331.234130859375	1.106482863426209	1324.227172851563	-1306.241821289063	276.8531188964844	1431.325927734375	-1188.205200195313	285.9548950195313	1441.755493164063	-1267.528198242188	371.9354858398438	1464.172485351563	-1186.934936523438	-322.0598754882813	1420.915771484375	-916.3555908203127	-164.1822509765625	1397.932739257813	-807.6187133789065	-139.9577331542969	1425.090576171875	-841.4423828125002	-94.45546722412111	1404.085083007813	-806.9964599609377	-29.02799797058106	1414.947021484375	-816.778015136719	-19.53695106506348	1340.427856445313	-841.0554809570315	263.0512695312501	1467.530395507813	-854.1950683593752	342.6635131835938	1481.635620117188	-938.470642089844	-225.8625183105469	916.269958496094	-1175.692260742188	-269.6954956054688	933.2065429687502	-901.2647094726565	-447.4601440429689	956.8889770507815	-1058.311279296875	-445.9775390625001	928.6342773437502	-1087.890014648438	-454.0617065429689	922.3831787109377	-1034.116333007813	-197.0977020263672	702.4777832031251	-1230.096435546875	-134.3262176513672	645.8079223632814	-1227.352661132813	-92.38107299804689	669.7139282226564	-1223.333984375	-138.9419860839844	586.6959228515626	-1212.766845703125	-56.58552551269533	460.8154602050782	-1178.400512695313	-41.70198059082032	455.9616088867189	-1046.241455078125	-138.6429443359375	271.6183166503907	-1069.707763671875	-193.7217407226563	239.6656341552735	-1134.96630859375	-170.4586181640625	228.3337554931641	-1097.146118164063	-221.7260284423829	178.0259704589844	-1053.57275390625	-336.3064880371094	105.2649078369141	-1085.766967773438	-405.3657836914064	82.72493743896486	-1026.8408203125	-190.9495849609375	56.79259872436525	-1055.655639648438	-203.9949035644532	40.77390670776368	-1102.739013671875	-305.8072814941407	123.4297409057617	-1002.847412109375	-70.52949523925783	713.8273315429689	-826.352722167969	-4.219543457031251	723.4840087890626	-823.9590454101565	10.59342479705811	754.0184326171876	-828.6441650390627	51.71963500976564	663.2512817382814	-833.9121704101565	106.4674987792969	627.0562744140626	-831.7443847656252	141.7181396484375	644.4956054687501	-956.6484375000002	243.3003692626954	573.9049682617189	-842.1441650390627	256.1061706542969	473.3379211425782	-809.9573364257815	288.8170471191407	501.728240966797	-828.312194824219	326.2302856445313	476.0966186523439	-866.3398437500002	412.595184326172	302.9442443847657	-822.9358520507815	428.3474426269532	331.1996765136719	-908.2932739257815	410.0016479492189	228.1020812988282	-881.527526855469	558.5806274414064	398.232635498047	-855.7822875976565	551.4769897460939	396.1684570312501	-817.7988891601565	552.1923217773439	367.4585266113282	-771.116638183594	249.0658874511719	1448.7431640625	-928.9838867187502	
1299	6.49	-298.2438964843751	1678.570434570313	-1076.27099609375	-427.1126098632814	1557.26708984375	-1146.552124023438	-433.5521545410157	1552.808471679688	-1000.03125	-462.7063903808595	1413.78271484375	-1086.722900390625	-452.7863159179689	1077.69189453125	-1066.9267578125	-295.7180175781251	1378.67138671875	-1075.306030273438	-315.9716491699219	1417.343994140625	-1247.513671875	-137.9947814941407	1378.941040039063	-1338.878784179688	-112.8870010375977	1410.984619140625	-1310.029907226563	-69.20466613769533	1381.363891601563	-1340.67138671875	-5.636857509613038	1394.121459960938	-1331.274780273438	1.83604645729065	1323.298706054688	-1305.93603515625	276.8088073730469	1430.456665039063	-1188.808837890625	286.6315917968751	1440.905883789063	-1267.429809570313	372.6418151855469	1462.920532226563	-1186.31982421875	-321.5081481933594	1420.0654296875	-916.3613281250002	-163.5048522949219	1397.372924804688	-807.6079101562502	-139.6301574707032	1424.24609375	-841.447937011719	-94.01024627685548	1403.148803710938	-806.964050292969	-28.49574279785157	1414.139282226563	-816.8061523437502	-18.95037269592286	1339.584350585938	-840.9860839843752	263.5315246582032	1467.073120117188	-854.2227172851565	343.0477294921876	1481.186767578125	-938.4783325195315	-225.9255065917969	915.4078369140627	-1175.731323242188	-269.4900207519532	932.3312988281252	-901.393005371094	-447.0931091308595	956.0397949218752	-1058.218383789063	-445.6999511718751	927.9204711914065	-1087.881958007813	-454.044647216797	921.652282714844	-1034.08203125	-196.527328491211	701.6332397460939	-1230.015747070313	-134.5175476074219	645.7995605468751	-1227.426147460938	-91.6428909301758	669.0693969726564	-1223.016723632813	-136.9623107910157	585.7067260742189	-1212.551879882813	-55.35199356079103	460.2370605468751	-1178.067993164063	-41.0392189025879	455.4644470214845	-1045.964599609375	-138.152572631836	271.3020019531251	-1069.468505859375	-193.3155364990235	239.3710327148438	-1134.749633789063	-170.0760650634766	228.2699279785157	-1097.005737304688	-221.2436981201172	177.6714630126953	-1053.343505859375	-336.2241210937501	105.3487091064453	-1085.672241210938	-405.3663330078126	82.84071350097658	-1026.782958984375	-190.9461669921875	56.73900604248048	-1055.572387695313	-203.9010620117188	40.74486923217774	-1102.728271484375	-305.7950134277344	123.4162063598633	-1002.716796875	-70.07785034179689	713.2180786132814	-826.376892089844	-3.850890874862672	722.6094970703126	-824.0264892578127	10.93767261505127	753.4223632812501	-828.8234863281252	52.15554428100587	662.6342773437501	-834.070007324219	106.8391952514649	626.3834228515626	-831.8640136718752	141.855697631836	643.7496337890626	-956.8121337890627	243.8774414062501	573.2680664062501	-842.2425537109377	256.5090637207032	472.4057006835939	-810.0596313476565	289.0385131835938	501.2987060546876	-828.5629882812502	326.6653137207032	475.5806274414064	-866.677673339844	413.2145385742189	302.3776245117188	-823.322448730469	429.0486145019532	330.7813110351563	-908.6660156250002	410.5015869140626	227.6802368164063	-881.6937255859377	559.0447998046876	397.7874755859376	-856.0739746093752	552.0366821289064	395.5887756347657	-818.0924072265627	552.7801513671876	367.0480346679688	-771.4210205078127	249.4868316650391	1448.250854492188	-929.119567871094	
1300	6.495	-297.8926086425782	1678.202880859375	-1076.421997070313	-426.7162170410157	1556.362548828125	-1146.581420898438	-433.1803283691407	1551.044921875	-999.6692504882815	-462.1987915039064	1412.858642578125	-1086.62353515625	-452.2139587402345	1077.156982421875	-1066.814453125	-295.2827758789063	1377.907958984375	-1075.12255859375	-315.2395324707032	1416.374633789063	-1247.418090820313	-137.6594696044922	1377.92578125	-1338.897216796875	-112.0933990478516	1410.085327148438	-1309.959594726563	-68.7133255004883	1380.484985351563	-1340.658569335938	-5.149909019470216	1393.220581054688	-1331.265380859375	2.531872987747193	1322.462280273438	-1305.801635742188	277.7695617675782	1429.669067382813	-1187.928344726563	286.9087829589844	1440.083618164063	-1267.260375976563	373.2939147949219	1462.130737304688	-1186.46044921875	-321.0823364257813	1419.151000976563	-916.3909912109377	-162.930892944336	1396.7998046875	-807.561950683594	-139.0208740234375	1423.577758789063	-841.3666992187502	-93.42646789550783	1402.587158203125	-806.984313964844	-27.8852825164795	1413.446411132813	-816.8257446289065	-18.2951774597168	1339.098999023438	-840.907653808594	264.0143127441407	1466.493896484375	-854.260925292969	343.3771057128907	1480.740844726563	-938.4318847656252	-225.2972412109376	914.4834594726565	-1175.643676757813	-269.3392639160157	931.3170166015627	-901.255310058594	-446.840057373047	955.028991699219	-1058.246704101563	-445.3795471191407	926.8013305664065	-1087.781372070313	-453.4710693359376	920.7557373046877	-1034.073120117188	-195.6302032470704	700.8334960937501	-1229.763671875	-132.7085266113282	644.5020141601564	-1227.012329101563	-90.35969543457033	668.1243286132814	-1222.552001953125	-136.7000579833985	585.1999511718751	-1212.311401367188	-54.28937149047853	459.6297607421876	-1177.85986328125	-40.30475234985352	454.9934997558595	-1045.657104492188	-137.6584625244141	270.9387512207032	-1069.162963867188	-192.9206542968751	239.0568084716797	-1134.487060546875	-169.838363647461	228.0164794921876	-1096.785888671875	-221.0517883300782	177.4727325439453	-1053.173095703125	-336.0928649902344	105.4295959472657	-1085.597778320313	-405.363494873047	82.85864257812501	-1026.76806640625	-191.0199127197266	55.62281799316408	-1055.258422851563	-203.8547668457032	40.83096313476563	-1102.731567382813	-305.7595825195313	123.424430847168	-1002.603698730469	-69.72373199462892	712.2813110351564	-826.488220214844	-3.543090820312501	721.7597656250001	-824.1649169921877	11.17867946624756	752.5142822265626	-828.8146972656252	52.18054199218751	661.5496215820314	-834.4200439453127	107.2035751342774	625.7159423828126	-832.0853271484377	142.306381225586	643.1058959960939	-957.0723876953127	244.3207397460938	572.5531616210939	-842.4116210937502	257.0230712890626	471.9971618652345	-810.3696289062502	289.5756225585938	500.5774536132814	-828.778015136719	327.1688232421876	474.9048461914064	-866.978698730469	413.7845458984376	301.8972167968751	-823.5825195312502	429.6264648437501	330.2884521484376	-909.0042724609377	411.1564025878907	227.1318054199219	-881.9478759765627	559.6875000000001	397.3778381347657	-856.4650878906252	552.5886840820314	395.1976013183595	-818.4326782226565	553.3381347656251	366.7062072753907	-771.7618408203127	249.6959686279297	1448.272216796875	-929.341735839844	
